<svg xmlns="http://www.w3.org/2000/svg" version="1.1" xmlns:xlink="http://www.w3.org/1999/xlink" xmlns:svgjs="http://svgjs.dev/svgjs" width="1000" height="1000" viewBox="0 0 1000 1000"><g transform="matrix(1,0,0,1,0,0.0009372769032438555)"><svg viewBox="0 0 280 280" data-background-color="#fdfbe2" preserveAspectRatio="xMidYMid meet" height="1000" width="1000" xmlns="http://www.w3.org/2000/svg" xmlns:xlink="http://www.w3.org/1999/xlink"><g id="tight-bounds" transform="matrix(1,0,0,1,0,-0.00026243753291055327)"><svg viewBox="0 0 280 280" height="280" width="280"><g><svg viewBox="0 0 280 280" height="280" width="280"><g><svg viewBox="0 0 280 280" height="280" width="280"><g id="textblocktransform"><svg viewBox="0 0 280 280" height="280" width="280" id="textblock"><g><svg viewBox="0 0 280 280" height="280" width="280"><g transform="matrix(1,0,0,1,74.00336708925556,74.02260248211793)"><svg viewBox="0 0 131.99326582148888 131.95479503576414" height="131.95479503576414" width="131.99326582148888"><g><svg xmlns="http://www.w3.org/2000/svg" xmlns:xlink="http://www.w3.org/1999/xlink" version="1.1" x="0" y="0" viewBox="5.143 5.361 89.206 89.17999999999999" enable-background="new 0 0 100 100" xml:space="preserve" height="131.95479503576414" width="131.99326582148888" class="icon-kg-0" data-fill-palette-color="accent" id="kg-0"><path fill-rule="evenodd" clip-rule="evenodd" d="M50.026 94.541C25.69 94.528 5.245 76.394 5.143 49.977 5.245 23.509 26.749 5.361 50.078 5.361c26.672 0 44.169 23.916 44.169 44.615 0 7.045 0 7.325-2.348 14.076l-52.617 0.026c-1.251-0.013-2.259-1.34-2.259-2.591 0-1.251 1.034-1.953 2.272-1.953l10.707-0.102v-1.225H32.428c-1.251 0-2.259-1.008-2.259-2.259 0-1.251 1.034-2.233 2.272-2.233h17.56l-0.013-1.493H30.233c-1.251-0.013-2.259-1.021-2.259-2.272s1.021-2.259 2.259-2.259h19.768v-1.506H34.763c-1.251-0.013-2.259-1.021-2.259-2.272 0-1.251 1.034-2.195 2.259-2.17h26.634V40.15H52.17c-1.2-0.013-2.182-1.021-2.182-2.272 0-1.251 1.161-2.208 2.182-2.208l9.125-0.026c6.777 0 11.345 6.1 11.345 10.541h3.637c-0.906-11.486-11.179-22.678-26.2-22.665C32.53 23.509 23.66 38.006 23.711 49.977 23.66 64.079 35.108 76.1 49.478 76.394c0-4.428 4.569-10.529 11.345-10.529l9.125 0.026c1.021 0 2.182 0.957 2.182 2.208 0 1.251-0.983 2.259-2.182 2.272h-9.227v1.595h26.838c1.225-0.026 2.259 0.919 2.259 2.17s-1.008 2.259-2.259 2.272H72.117v1.506H92.09c1.238 0 2.259 1.008 2.259 2.259 0 1.251-1.008 2.259-2.259 2.272H72.13l-0.013 1.493h17.765c1.238 0 2.272 0.983 2.272 2.233 0 1.251-1.008 2.259-2.259 2.259H72.117v1.429l10.911 0.102c1.238 0 2.272 0.702 2.272 1.953 0 1.251-1.008 2.578-2.259 2.591L50.026 94.541 50.026 94.541z" fill="#454545" data-fill-palette-color="accent"></path></svg></g></svg></g><g><path d="M9.369 92.033c0.563-1.419 1.546-2.431 2.949-3.036 1.408-0.597 3.204-0.538 5.389 0.176v0c1.429 0.467 2.467 1.143 3.113 2.028 0.64 0.883 0.993 1.778 1.059 2.685 0.065 0.908-0.002 1.666-0.201 2.275v0c-0.184 0.564-0.435 1.538-0.753 2.924v0c-0.172 0.809-0.324 1.458-0.455 1.946v0c1.92 0.677 3.226 1.129 3.918 1.355v0c2.736 0.894 4.23 1.346 4.481 1.358v0c0.224 0.031 0.394 0.129 0.51 0.294 0.122 0.168 0.18 0.35 0.173 0.546-0.005 0.19-0.064 0.348-0.176 0.474v0c-0.04 0.058-0.108 0.234-0.205 0.529v0c-0.207 0.634-0.385 1.321-0.534 2.059v0c-0.066 0.354-0.206 0.553-0.419 0.597-0.215 0.05-0.511 0.014-0.889-0.11v0c-0.461-0.151-0.877-0.301-1.247-0.45v0l-2.643-0.895-3.697-1.282c-4.42-1.579-7.882-2.777-10.387-3.596v0c-0.756-0.247-1.211-0.385-1.365-0.414v0c-0.476-0.106-0.756-0.172-0.839-0.2v0c-0.545-0.178-0.778-0.385-0.701-0.622v0c0.034-0.103 0.113-0.314 0.24-0.635 0.126-0.32 0.285-0.775 0.477-1.365v0c0.054-0.167 0.185-0.599 0.392-1.297 0.207-0.698 0.435-1.429 0.684-2.191v0c0.364-1.115 0.74-2.166 1.126-3.153zM19.111 96.301c0.255-0.782 0.262-1.584 0.021-2.408-0.242-0.823-0.961-1.431-2.159-1.822v0c-1.281-0.419-2.341-0.474-3.18-0.167-0.832 0.31-1.509 0.939-2.031 1.889v0c-0.829 1.474-1.359 2.673-1.59 3.597v0c0.589 0.193 1.028 0.347 1.317 0.462v0c1.164 0.43 1.986 0.759 2.464 0.986v0c0.71 0.324 1.536 0.615 2.48 0.875v0l1.249 0.344 0.58-1.449c0.244-0.551 0.527-1.32 0.849-2.307z" fill="#454545" data-fill-palette-color="primary"></path><path d="M24.754 79.584l0.684-1.251c0.214-0.413 0.395-0.805 0.543-1.177v0c0.038-0.132 0.123-0.324 0.253-0.574v0c0.143-0.275 0.262-0.475 0.358-0.601v0l0.408-0.654-0.833-0.546-1.371-0.827-2.852-1.55-2.237-1.242c-0.284-0.17-0.461-0.312-0.532-0.425-0.065-0.11-0.053-0.278 0.035-0.505v0c0.103-0.197 0.332-0.777 0.688-1.74v0c0.063-0.165 0.202-0.454 0.416-0.866v0c0.326-0.628 0.624-1.134 0.892-1.519v0c0.154-0.194 0.267-0.302 0.339-0.325 0.073-0.023 0.172-0.009 0.298 0.041 0.123 0.056 0.238 0.097 0.346 0.123v0c0.317 0.165 0.831 0.47 1.542 0.915v0c1.335 0.793 2.257 1.321 2.765 1.585v0c0.257 0.134 1.043 0.618 2.356 1.452v0c1.427 0.893 2.368 1.458 2.823 1.694v0l5.855 2.963c2.201 1.144 3.567 1.804 4.098 1.981v0l0.063 0.033c0.215 0.112 0.327 0.219 0.334 0.322 0.007 0.103-0.018 0.203-0.077 0.302-0.062 0.089-0.103 0.155-0.125 0.197v0c-0.123 0.134-0.245 0.317-0.366 0.55v0c-0.04 0.078-0.153 0.346-0.338 0.804v0c-0.223 0.575-0.652 1.473-1.286 2.694v0l-0.028 0.054c-0.143 0.275-0.304 0.366-0.483 0.272v0c-0.371-0.193-1.11-0.569-2.217-1.129-1.107-0.56-1.93-0.942-2.469-1.146v0c-0.766-0.353-1.502-0.712-2.208-1.079v0c-0.302-0.134-0.759-0.36-1.369-0.677v0l-0.447 0.861-0.631 1.279-0.239 0.548-0.339 0.565c-0.155 0.299-0.287 0.531-0.395 0.695v0l1.811 1.054c0.657 0.417 1.535 0.912 2.636 1.484v0l1.498 0.778c1.059 0.55 1.707 0.86 1.943 0.931v0c0.258 0.088 0.383 0.199 0.375 0.331-0.008 0.133-0.049 0.271-0.124 0.414-0.078 0.15-0.132 0.254-0.163 0.314v0c-0.099 0.146-0.259 0.397-0.482 0.752-0.226 0.361-0.399 0.659-0.52 0.892v0l-0.39 0.881c-0.048 0.15-0.271 0.683-0.671 1.599v0c-0.182 0.483-0.576 0.567-1.18 0.253v0l-1.13-0.633-2.098-1.158c-0.431-0.224-0.825-0.444-1.183-0.661v0l-3.405-1.803c-0.784-0.407-1.288-0.658-1.512-0.752v0c-0.486-0.176-1.09-0.453-1.814-0.828v0l-1.78-0.96c-0.29-0.173-0.668-0.381-1.135-0.623v0c-0.55-0.286-1.659-0.938-3.325-1.956v0l-1.981-1.143c-0.161-0.084-0.257-0.171-0.285-0.262-0.023-0.088-0.005-0.188 0.054-0.303v0l0.228-0.371c0.17-0.239 0.372-0.555 0.607-0.95 0.232-0.403 0.451-0.802 0.656-1.197v0l0.677-1.369c0.088-0.228 0.203-0.479 0.347-0.754v0l0.014-0.027c0.084-0.161 0.237-0.185 0.457-0.07v0c0.045 0.001 0.437 0.189 1.176 0.566 0.742 0.37 1.615 0.817 2.621 1.339v0c0.628 0.326 1.462 0.782 2.502 1.368v0z" fill="#454545" data-fill-palette-color="primary"></path><path d="M26.843 58.217c0.19-0.221 0.359-0.448 0.508-0.681 0.149-0.233 0.28-0.429 0.393-0.588v0c0.285-0.401 0.501-0.682 0.648-0.843v0c0.173-0.208 0.326-0.331 0.46-0.368 0.138-0.043 0.27-0.019 0.396 0.071v0c0.093 0.066 0.185 0.148 0.273 0.244 0.098 0.095 0.185 0.181 0.262 0.26v0c1.393 1.287 2.895 2.519 4.506 3.696v0c0.455 0.348 1.169 0.868 2.142 1.558v0l3.29 2.3c0.29 0.173 0.578 0.361 0.865 0.564v0l1.097 0.742c0.967 0.629 1.676 1.103 2.127 1.423v0c0.341 0.242 0.539 0.399 0.594 0.472v0c0.065 0.071 0.268 0.228 0.609 0.47v0l1.502 1.029c0.235 0.134 0.515 0.316 0.839 0.547v0c0.248 0.151 0.348 0.325 0.299 0.522-0.043 0.201-0.166 0.42-0.367 0.657v0l-1.751 2.465c-0.169 0.285-0.348 0.414-0.536 0.388-0.188-0.026-0.439-0.138-0.753-0.337v0c-0.154-0.051-0.477-0.306-0.97-0.763v0c-0.455-0.43-0.861-0.773-1.218-1.027v0c-0.126-0.09-1.299-1.017-3.518-2.783v0c-1.62-1.316-2.513-2.032-2.677-2.149v0l-2.605-1.937-2.43-1.8-1.418-1.094-0.938-0.74-1.137-0.808c-0.703-0.5-0.926-0.931-0.669-1.293v0c0.062-0.088 0.121-0.154 0.177-0.197z" fill="#454545" data-fill-palette-color="primary"></path><path d="M35.999 47.73l1.369 1.35c2.197 2.191 3.392 3.376 3.584 3.555v0l3.458 3.244c0.312 0.289 0.588 0.531 0.829 0.727v0l1.489 1.324c0.341 0.316 0.542 0.521 0.603 0.614v0c0.085 0.106 0.172 0.191 0.26 0.254 0.089 0.073 0.148 0.123 0.178 0.151v0c0.064 0.06 0.113 0.086 0.146 0.08v0l0.588-0.53c0.516-0.487 0.921-0.911 1.218-1.27v0l4.126-4.544c0 0 0.815-0.83 2.444-2.49v0l1.08-1.122c0.18-0.164 0.312-0.207 0.396-0.13v0c0.03 0.027 0.062 0.072 0.098 0.132 0.036 0.061 0.078 0.114 0.128 0.16v0l1.12 1.038c0.292 0.27 0.951 0.794 1.977 1.569v0l1.12 0.845 0.14 0.087c0.084 0.078 0.1 0.17 0.046 0.278-0.049 0.102-0.171 0.259-0.368 0.472v0l-1.672 1.745-2.841 2.978c-0.376 0.406-0.878 0.997-1.506 1.774v0c-0.283 0.335-0.602 0.71-0.959 1.125-0.352 0.409-0.708 0.809-1.07 1.2v0l-0.407 0.394c-0.106 0.085-0.286 0.264-0.537 0.536v0l-0.995 1.119c-0.164 0.207-0.39 0.466-0.678 0.777v0c-0.192 0.208-0.336 0.309-0.432 0.302-0.096-0.015-0.196-0.081-0.301-0.196-0.109-0.11-0.203-0.202-0.283-0.275v0c-0.356-0.33-0.949-0.925-1.778-1.785v0l-2.438-2.396-1.191-1.021c-0.246-0.191-0.534-0.426-0.864-0.704-0.33-0.278-0.663-0.573-1-0.884v0c0.549 0.508 0.036-0.054-1.539-1.687-1.575-1.643-2.555-2.642-2.94-3v0l-2.773-2.526-1.606-1.391-0.029-0.028c-0.129-0.119-0.11-0.268 0.054-0.446v0l0.338-0.32c0.078-0.084 0.181-0.186 0.311-0.305 0.129-0.119 0.322-0.318 0.578-0.595v0l0.206-0.222c0.087-0.094 0.195-0.081 0.323 0.037z" fill="#454545" data-fill-palette-color="primary"></path><path d="M77.636 40.767c0.22 0.112 0.351 0.195 0.391 0.249v0c0.106 0.14 0 0.33-0.317 0.57v0l-1.902 1.44c-0.07 0.053-0.189 0.046-0.358-0.02-0.163-0.071-0.319-0.147-0.466-0.23-0.142-0.087-0.264-0.159-0.367-0.217v0c-0.22-0.112-0.691-0.394-1.413-0.845-0.717-0.455-1.277-0.821-1.682-1.098v0c-0.188-0.137-0.49-0.318-0.906-0.543-0.422-0.222-0.72-0.376-0.896-0.463v0c-0.229-0.157-0.404-0.248-0.525-0.275-0.112-0.025-0.23 0.009-0.354 0.103v0c-0.124 0.094-0.271 0.222-0.443 0.386-0.17 0.154-0.354 0.319-0.552 0.494v0c-0.117 0.147-0.543 0.5-1.279 1.058v0c-0.516 0.391-1.006 0.787-1.47 1.19v0c-0.145 0.144-0.422 0.37-0.83 0.679v0l-1.419 1.024c-0.091 0.069-0.132 0.155-0.122 0.258 0.01 0.102 0.043 0.213 0.099 0.331 0.057 0.109 0.096 0.194 0.116 0.254v0l0.34 0.783c0.133 0.288 0.287 0.624 0.46 1.009 0.168 0.389 0.33 0.743 0.488 1.063v0l0.571 1.356 0.376 0.933c0.105 0.25 0.16 0.424 0.166 0.521-0.004 0.096-0.048 0.176-0.134 0.241v0l-1.563 1.184c-0.086 0.065-0.155 0.063-0.209-0.007v0c-0.028-0.038-0.087-0.188-0.176-0.45v0c-0.113-0.439-0.243-0.868-0.392-1.288v0c-1.006-2.679-1.7-4.399-2.081-5.159v0c-0.51-1.009-1.045-2.396-1.606-4.162v0c-0.296-0.714-0.559-1.374-0.788-1.978v0c-0.139-0.284-0.289-0.644-0.45-1.079v0c-0.603-1.488-1.142-2.898-1.617-4.229v0l-0.939-2.612c-0.275-0.654-0.525-1.352-0.75-2.096v0c-0.101-0.346-0.027-0.499 0.222-0.46v0c0.16-0.012 0.335 0.051 0.523 0.188 0.184 0.131 0.313 0.228 0.385 0.291v0c0.212 0.169 1.48 0.871 3.802 2.105v0c0.904 0.457 1.999 1.115 3.285 1.976v0c0.564 0.376 1.885 1.109 3.962 2.2v0c1.03 0.522 1.726 0.895 2.09 1.118v0c0.753 0.402 2.646 1.327 5.68 2.776v0l0.823 0.416c1.083 0.592 1.825 0.93 2.227 1.015zM64.093 37.289c0.111-0.11 0.21-0.197 0.296-0.262 0.091-0.069 0.155-0.13 0.191-0.183 0.042-0.057 0.048-0.104 0.02-0.142v0c-0.028-0.038-0.108-0.087-0.24-0.148v0c-0.208-0.096-0.747-0.389-1.617-0.88-0.871-0.491-1.508-0.874-1.913-1.152v0c-0.499-0.29-0.902-0.538-1.211-0.744-0.312-0.212-0.536-0.351-0.671-0.418v0c-0.097-0.062-0.203-0.117-0.316-0.166-0.112-0.059-0.205-0.103-0.278-0.132-0.078-0.025-0.136-0.024-0.174 0.005v0c-0.048 0.037-0.003 0.214 0.136 0.531 0.14 0.308 0.245 0.546 0.313 0.714v0c0.46 1.266 0.82 2.216 1.079 2.848v0c0.13 0.316 0.272 0.716 0.427 1.199 0.151 0.478 0.257 0.808 0.318 0.99v0c0.077 0.213 0.155 0.373 0.237 0.48v0c0.081 0.107 0.2 0.102 0.355-0.016v0c0.371-0.281 0.93-0.726 1.679-1.335 0.748-0.609 1.204-1.005 1.369-1.189z" fill="#454545" data-fill-palette-color="primary"></path><path d="M79.332 17.179c-0.641-1.209-1.031-1.964-1.167-2.264v-0.001c-0.199-0.375-0.191-0.669 0.024-0.882 0.209-0.21 0.558-0.445 1.045-0.704v0c0.435-0.231 0.976-0.548 1.624-0.953 0.648-0.405 1.14-0.735 1.477-0.99v0c0.264-0.163 0.485-0.223 0.661-0.179 0.176 0.044 0.33 0.191 0.463 0.441v0c0.041 0.077 0.136 0.306 0.283 0.685v0c0.119 0.311 1.133 2.264 3.042 5.86v0l3.512 6.618c0.531 1 1.127 2.095 1.79 3.286 0.665 1.181 1.273 2.24 1.823 3.176 0.544 0.94 0.703 1.195 0.475 0.766v0c0.164 0.31 0.092 0.547-0.218 0.711v0c-0.137 0.073-0.258 0.125-0.362 0.158v0c-0.093 0.026-0.255 0.101-0.488 0.224v0c-0.232 0.123-0.595 0.339-1.088 0.646v0c-0.526 0.332-0.896 0.555-1.11 0.67v0c-0.369 0.196-0.687 0.265-0.954 0.208-0.27-0.063-0.612-0.247-1.026-0.554v0l-1.027-0.726c-1.279-1-2.342-1.752-3.189-2.256v0c-0.484-0.293-1.754-1.133-3.811-2.522v0l-2.584-1.742 0.588 1.108 0.36 0.679c0.082 0.155 0.18 0.354 0.295 0.598 0.117 0.235 0.262 0.494 0.435 0.777v0c0.54 1.018 1.261 2.341 2.164 3.968 0.899 1.622 1.466 2.583 1.702 2.885v0c0.068 0.086 0.139 0.197 0.212 0.334v0c0.104 0.196 0.13 0.339 0.078 0.428-0.049 0.095-0.187 0.187-0.414 0.277v0c-0.316 0.167-0.671 0.383-1.065 0.646-0.404 0.26-0.779 0.509-1.126 0.746v0c-0.27 0.197-0.485 0.25-0.648 0.161-0.162-0.09-0.359-0.374-0.59-0.855v0c-0.373-0.703-1.061-1.928-2.066-3.676v0c-1.063-1.817-1.966-3.402-2.707-4.756v0c-0.736-1.387-1.454-2.811-2.153-4.272v0c-0.919-1.817-1.555-3.059-1.909-3.725v0c-0.474-0.893-0.847-1.531-1.118-1.914v0c-0.228-0.329-0.369-0.544-0.423-0.645v0c-0.186-0.351-0.253-0.621-0.2-0.809 0.044-0.191 0.164-0.339 0.36-0.443v0c0.101-0.054 0.301-0.152 0.599-0.295 0.298-0.143 0.685-0.428 1.159-0.856v0c0.192-0.155 0.396-0.29 0.61-0.404v0c0.119-0.063 0.291-0.143 0.515-0.239 0.227-0.09 0.516-0.228 0.867-0.414v0c0.452-0.24 0.921-0.264 1.405-0.071 0.49 0.19 1.081 0.513 1.774 0.97v0l0.574 0.371c0.466 0.302 0.992 0.611 1.579 0.925v0l0.806 0.442z" fill="#454545" data-fill-palette-color="primary"></path><path d="M106.657 3.594c0.265-0.055 0.44-0.04 0.524 0.047 0.084 0.087 0.151 0.221 0.201 0.403 0.044 0.184 0.079 0.318 0.106 0.401v0c0.107 0.27 0.115 0.476 0.025 0.618-0.094 0.15-0.279 0.268-0.556 0.355v0c-0.167 0.053-0.485 0.164-0.955 0.334-0.47 0.169-1.045 0.351-1.725 0.545v0l-0.126 0.039 1.751 5.746 1.721 5.585c0.266 0.842 0.652 1.897 1.158 3.165 0.506 1.268 0.822 2.066 0.947 2.394v0c0.662 1.65 1.027 2.581 1.094 2.793v0c0.151 0.412 0.141 0.715-0.03 0.91-0.172 0.196-0.521 0.377-1.048 0.543v0l-1.4 0.4c-0.103 0.032-1.842 0.546-5.218 1.542v0l-1.976 0.592c-0.206 0.065-0.374-0.111-0.506-0.529v0c-0.047-0.148-0.118-0.44-0.214-0.877v0c-0.128-0.561-0.238-0.989-0.331-1.284v0c-0.22-0.539-0.545-1.492-0.978-2.861v0c-0.578-1.832-1.172-3.8-1.78-5.906-0.608-2.105-1.034-3.699-1.276-4.782v0c-0.136-0.565-0.35-1.31-0.643-2.235v0c-0.327-1.035-0.606-1.806-0.836-2.313v0l-0.578 0.151-2.604 0.886c-0.167 0.053-0.303-0.088-0.409-0.422v0l-0.191-0.704c-0.055-0.174-0.065-0.294-0.029-0.361 0.035-0.068 0.117-0.122 0.246-0.163v0c0.084-0.026 0.193-0.05 0.327-0.071 0.13-0.013 0.282-0.047 0.456-0.102v0l6.727-2.167 5.487-1.796c0.853-0.298 1.733-0.59 2.639-0.876z" fill="#454545" data-fill-palette-color="primary"></path><path d="M122.11 10.678l1.416-0.163c0.461-0.063 0.885-0.142 1.274-0.236v0c0.13-0.045 0.335-0.087 0.616-0.126v0c0.307-0.042 0.539-0.06 0.696-0.054v0l0.77-0.045-0.035-0.995-0.116-1.596-0.381-3.224-0.278-2.544c-0.025-0.33-0.012-0.556 0.04-0.679 0.052-0.116 0.197-0.204 0.433-0.263v0c0.22-0.03 0.826-0.178 1.817-0.444v0c0.171-0.044 0.487-0.097 0.948-0.16v0c0.701-0.096 1.286-0.146 1.755-0.149v0c0.247 0.014 0.401 0.044 0.461 0.09 0.061 0.046 0.107 0.135 0.139 0.267 0.025 0.133 0.058 0.251 0.099 0.353v0c0.049 0.354 0.096 0.95 0.143 1.787v0c0.124 1.548 0.225 2.606 0.303 3.173v0c0.039 0.287 0.098 1.208 0.175 2.762v0c0.094 1.681 0.177 2.775 0.246 3.283v0l0.961 6.492c0.337 2.457 0.587 3.954 0.749 4.489v0l0.01 0.071c0.033 0.24 0.01 0.393-0.07 0.458-0.079 0.065-0.176 0.102-0.291 0.111-0.109 0.001-0.186 0.005-0.233 0.012v0c-0.18-0.023-0.4-0.017-0.661 0.019v0c-0.087 0.012-0.371 0.075-0.852 0.188v0c-0.599 0.15-1.579 0.319-2.941 0.506v0l-0.06 0.008c-0.307 0.042-0.475-0.037-0.502-0.237v0c-0.057-0.414-0.176-1.235-0.358-2.462-0.182-1.227-0.345-2.12-0.49-2.678v0c-0.155-0.829-0.286-1.638-0.394-2.426v0c-0.065-0.324-0.144-0.827-0.237-1.508v0l-0.962 0.132-1.408 0.224-0.586 0.121-0.656 0.049c-0.334 0.046-0.599 0.072-0.796 0.078v0l0.184 2.088c0.039 0.777 0.142 1.78 0.311 3.009v0l0.229 1.672c0.162 1.182 0.283 1.89 0.363 2.124v0c0.077 0.262 0.059 0.427-0.054 0.498-0.113 0.07-0.249 0.116-0.41 0.137-0.167 0.023-0.284 0.039-0.35 0.049v0c-0.176 0.004-0.474 0.017-0.893 0.04-0.425 0.024-0.768 0.054-1.029 0.09v0l-0.943 0.191c-0.15 0.048-0.714 0.173-1.694 0.375v0c-0.499 0.13-0.795-0.143-0.887-0.817v0l-0.136-1.288-0.265-2.382c-0.066-0.481-0.114-0.93-0.144-1.348v0l-0.494-3.82c-0.12-0.875-0.206-1.431-0.259-1.669v0c-0.136-0.498-0.26-1.152-0.371-1.96v0l-0.245-2.007c-0.026-0.337-0.074-0.765-0.146-1.286v0c-0.084-0.614-0.192-1.896-0.323-3.844v0l-0.21-2.278c-0.025-0.18-0.008-0.308 0.049-0.384 0.059-0.069 0.151-0.113 0.279-0.13v0l0.434-0.029c0.293 0.001 0.668-0.017 1.126-0.053 0.464-0.043 0.916-0.095 1.356-0.155v0l1.509-0.237c0.237-0.06 0.509-0.111 0.816-0.153v0l0.03-0.004c0.18-0.025 0.287 0.086 0.321 0.333v0c0.026 0.037 0.098 0.466 0.217 1.287 0.126 0.82 0.266 1.79 0.42 2.912v0c0.096 0.701 0.205 1.646 0.327 2.833v0z" fill="#454545" data-fill-palette-color="primary"></path><path d="M154.277 22.809c0.573 0.626 0.855 1.049 0.845 1.272v0c-0.002 0.04-0.062 0.115-0.182 0.224v0c-0.201 0.126-0.699 0.172-1.494 0.138v0c-0.579-0.025-0.944-0.082-1.096-0.17-0.152-0.081-0.261-0.214-0.326-0.399-0.073-0.179-0.128-0.313-0.165-0.402v0c-0.061-0.138-0.318-0.53-0.768-1.177-0.444-0.654-0.78-1.151-1.008-1.491v0c-1.106-1.553-2.063-2.958-2.872-4.214v0c-0.499-0.771-1.426-2.107-2.78-4.008v0l-0.506-0.68-2.158-2.958-0.19 1.327c-0.116 0.656-0.175 1.45-0.175 2.381v0c0.04 0.622 0.014 2.227-0.079 4.814-0.086 2.587-0.155 4.477-0.207 5.668v0c-0.016 0.357-0.16 0.577-0.434 0.659-0.267 0.09-0.579 0.126-0.935 0.111v0c-0.155-0.007-0.25-0.078-0.285-0.215-0.042-0.13-0.062-0.273-0.062-0.427-0.007-0.155-0.009-0.257-0.007-0.304v0c-0.032-0.352-0.033-0.872-0.002-1.559v0c0.019-0.444 0.047-0.774 0.083-0.988v0c0.073-1.198 0.194-3.281 0.364-6.249 0.177-2.974 0.318-5.643 0.421-8.007v0c0.111-2.539 0.142-4.018 0.093-4.438v0c-0.012-0.183-0.012-0.415 0-0.699v0c0.015-0.337 0.075-0.547 0.18-0.629 0.098-0.083 0.248-0.121 0.45-0.112v0c0.444 0.019 0.875 0.048 1.292 0.086v0l3.613 0.229c1.327 0.058 2.697 0.351 4.111 0.878 1.414 0.527 2.094 1.421 2.038 2.68v0c-0.052 1.192-0.534 2.102-1.445 2.73-0.911 0.621-1.921 1.029-3.029 1.224-1.102 0.195-2.063 0.274-2.884 0.238v0c-0.283-0.012-0.437-0.029-0.464-0.05v0c0.129 0.141 0.953 1.351 2.473 3.63v0c4.577 6.731 7.107 10.36 7.59 10.887zM141.757 6.858c0.727 0.032 1.28 0.042 1.658 0.032v0c1.281 0.016 2.278-0.029 2.991-0.132v0c1.024-0.131 1.806-0.339 2.345-0.626 0.532-0.287 0.813-0.761 0.842-1.421v0c0.019-0.444-0.196-0.838-0.647-1.182-0.451-0.337-0.999-0.604-1.645-0.8-0.646-0.19-1.212-0.296-1.696-0.317v0c-0.551-0.051-1.325-0.098-2.322-0.142v0l-1.121-0.049z" fill="#454545" data-fill-palette-color="primary"></path><path d="M175.347 5.069c1.102 1.158 1.883 2.559 2.345 4.202 0.461 1.643 0.691 3.197 0.688 4.66 0.006 1.459-0.081 2.589-0.26 3.392v0c-0.298 1.335-0.856 2.841-1.673 4.516-0.817 1.675-2.086 3.122-3.808 4.339-1.721 1.211-3.887 1.524-6.499 0.941v0c-3.585-0.801-5.669-3.453-6.251-7.955v0c-0.25-2.031-0.16-4.211 0.27-6.539v0c0.425-1.901 1.231-3.62 2.417-5.158 1.18-1.539 2.54-2.679 4.079-3.419 1.535-0.748 2.993-0.968 4.374-0.659v0c1.256 0.281 2.183 0.523 2.781 0.725 0.604 0.204 1.116 0.522 1.537 0.955zM166.378 25.266c2.289 0.512 4.209-0.061 5.76-1.717 1.546-1.664 2.642-3.94 3.288-6.828v0c0.396-1.77 0.498-3.466 0.309-5.09-0.191-1.617-0.667-2.981-1.427-4.091-0.76-1.109-1.769-1.804-3.026-2.085v0c-0.105-0.024-0.391-0.087-0.858-0.192-0.46-0.103-0.882-0.118-1.264-0.044-0.376 0.075-0.739 0.232-1.09 0.471v0c-0.869 0.552-1.613 1.069-2.233 1.553-0.621 0.49-1.304 1.262-2.051 2.318-0.747 1.056-1.292 2.35-1.634 3.882v0c-0.406 1.816-0.56 3.556-0.463 5.222 0.091 1.664 0.513 3.095 1.268 4.293 0.748 1.196 1.888 1.966 3.421 2.308z" fill="#454545" data-fill-palette-color="primary"></path><path d="M201.859 15.502c-0.042 0.099-0.169 0.357-0.38 0.773-0.205 0.418-0.441 0.944-0.708 1.577v0c-0.241 0.572-0.538 1.357-0.893 2.356v0c-0.233 0.553-0.703 0.68-1.411 0.382v0l-5.387-2.268-1.391 3.123c-0.165 0.34-0.539 1.203-1.122 2.588v0c-0.602 1.429-1.175 2.818-1.722 4.168-0.543 1.359-1.019 2.525-1.43 3.5v0l-0.502 1.27-0.062 0.149c-0.078 0.186-0.15 0.288-0.216 0.304-0.068 0.023-0.145 0.016-0.233-0.021-0.081-0.034-0.14-0.059-0.177-0.074v0l-2.078-0.875c-0.248-0.105-0.374-0.205-0.377-0.302-0.009-0.099 0.032-0.257 0.123-0.474 0.089-0.211 0.156-0.37 0.2-0.476v0l1.718-3.741c1.513-3.246 2.467-5.339 2.861-6.277v0c0.222-0.528 0.535-1.332 0.94-2.413v0l0.654-1.633c-1.466-0.617-2.963-1.222-4.491-1.814v0l-0.962-0.372c-0.267-0.112-0.42-0.261-0.46-0.446-0.039-0.185 0.008-0.359 0.143-0.522v0l0.359-0.748c0.534-1.165 1.012-2.247 1.433-3.247v0c0.207-0.491 0.322-0.79 0.345-0.897v0l0.09-0.215c0.094-0.224 0.197-0.338 0.308-0.341 0.109 0.002 0.253 0.041 0.434 0.116v0l3.028 1.275 1.731 0.685c1.072 0.407 1.822 0.701 2.25 0.882v0l1.824 0.8c1.454 0.663 2.597 1.17 3.43 1.521v0c0.615 0.259 1.018 0.414 1.209 0.465v0c0.455 0.17 0.743 0.371 0.864 0.605 0.117 0.225 0.137 0.431 0.058 0.617z" fill="#454545" data-fill-palette-color="primary"></path><path d="M218.795 25.047c0.643 1.463 0.903 3.046 0.779 4.749-0.124 1.702-0.436 3.242-0.936 4.617-0.49 1.374-0.956 2.408-1.397 3.102v0c-0.734 1.155-1.77 2.381-3.107 3.68-1.337 1.299-3.022 2.228-5.055 2.787-2.03 0.554-4.174 0.114-6.432-1.322v0c-3.1-1.971-4.159-5.173-3.178-9.605v0c0.454-1.996 1.279-4.015 2.475-6.059v0c1.045-1.644 2.387-2.987 4.024-4.03 1.632-1.047 3.298-1.657 4.998-1.831 1.698-0.183 3.144 0.106 4.339 0.866v0c1.086 0.691 1.876 1.233 2.368 1.626 0.498 0.397 0.872 0.87 1.122 1.42zM203.5 40.998c1.979 1.259 3.98 1.373 6.001 0.342 2.019-1.04 3.823-2.809 5.411-5.306v0c0.973-1.53 1.646-3.091 2.019-4.683 0.37-1.586 0.385-3.03 0.047-4.332-0.339-1.302-1.051-2.298-2.137-2.989v0c-0.091-0.058-0.338-0.215-0.743-0.472-0.398-0.253-0.79-0.41-1.174-0.471-0.379-0.057-0.774-0.033-1.185 0.074v0c-1.005 0.224-1.881 0.458-2.627 0.701-0.75 0.25-1.656 0.744-2.716 1.484-1.061 0.739-2.013 1.771-2.856 3.097v0c-0.998 1.57-1.734 3.155-2.209 4.754-0.48 1.596-0.568 3.085-0.265 4.468 0.297 1.379 1.108 2.49 2.434 3.333z" fill="#454545" data-fill-palette-color="primary"></path><path d="M229.8 33.651l2.76 2.585c0.164 0.151 0.24 0.276 0.23 0.377-0.001 0.1-0.054 0.207-0.159 0.321v0c-0.059 0.064-0.164 0.188-0.314 0.371-0.145 0.178-0.399 0.462-0.76 0.854v0c-0.137 0.149-0.378 0.376-0.723 0.68-0.35 0.31-0.637 0.572-0.863 0.786v0c-0.94 0.82-1.538 1.369-1.793 1.647v0l-1.488 1.613c-0.402 0.436-0.705 0.785-0.909 1.046v0c0.452-0.033 0.871-0.095 1.259-0.187v0l1.982-0.345c0.853-0.14 1.892-0.337 3.118-0.592 1.225-0.255 2.18-0.461 2.865-0.617v0c0.034 0.003 0.368-0.046 1.003-0.148v0c0.114-0.024 0.443-0.073 0.989-0.147 0.555-0.075 0.93-0.174 1.125-0.296v0c0.187-0.103 0.338-0.128 0.455-0.076 0.121 0.048 0.236 0.112 0.344 0.193 0.104 0.086 0.18 0.152 0.23 0.199v0c0.178 0.164 0.366 0.319 0.563 0.463 0.192 0.15 0.367 0.283 0.524 0.401v0l0.104 0.096c0.292 0.27 0.386 0.461 0.281 0.575v0c-0.059 0.064-0.161 0.1-0.303 0.106-0.143 0.006-0.229 0.009-0.257 0.01v0c-0.499 0.054-1.265 0.149-2.3 0.287-1.034 0.147-1.939 0.284-2.717 0.411v0c-0.87 0.188-2.062 0.427-3.577 0.717-1.515 0.29-2.443 0.457-2.784 0.499v0c-0.346 0.047-0.939 0.193-1.779 0.438-0.849 0.244-1.303 0.399-1.362 0.463v0c-0.073 0.079-0.099 0.266-0.077 0.561 0.021 0.285 0.036 0.538 0.045 0.757v0c-0.025 0.316-0.031 0.893-0.016 1.732 0.01 0.834 0.024 1.485 0.044 1.951v0l-0.008 1.038c-0.043 2.005-0.026 3.359 0.05 4.062v0c0.06 0.78 0.096 1.661 0.107 2.643 0.007 0.987 0.016 1.559 0.027 1.717v0l-0.044 0.137c-0.064 0.069-0.166 0.076-0.307 0.02-0.141-0.056-0.252-0.154-0.334-0.294v0l-0.808-0.69-1.29-1.107c-0.425-0.355-0.66-0.736-0.705-1.145v0c-0.004-0.095-0.015-0.317-0.034-0.664-0.024-0.352-0.036-0.707-0.036-1.065v0c-0.011-0.973-0.041-2.069-0.09-3.287v0c-0.014-0.343-0.051-0.725-0.111-1.148v0l-0.128-1.383-0.202-1.63-1.892 2.052c-0.329 0.357-0.688 0.791-1.077 1.303v0l-0.963 1.148c-0.151 0.164-0.272 0.23-0.364 0.201-0.096-0.025-0.182-0.071-0.256-0.14-0.074-0.069-0.126-0.117-0.156-0.144v0l-0.47-0.475-0.755-0.792-1.126-0.942-0.823-0.718c-0.114-0.105-0.154-0.201-0.119-0.288 0.035-0.087 0.164-0.252 0.388-0.495v0l5.495-6.005 2.111-2.289c1.787-1.938 2.827-3.101 3.121-3.49v0c0.163-0.207 0.439-0.521 0.827-0.942v0l1.51-1.593 1.805-1.897c0.137-0.149 0.285-0.15 0.443-0.004v0c0.099 0.091 0.182 0.191 0.248 0.297 0.066 0.107 0.142 0.199 0.226 0.278z" fill="#454545" data-fill-palette-color="primary"></path><path d="M254.212 61.929l-0.289 0.222c-0.4 0.309-0.627 0.429-0.68 0.36v0c-0.082-0.107-0.162-0.237-0.238-0.391-0.072-0.149-0.182-0.319-0.331-0.511v0l-3.243-4.203-2.49-3.276c-0.082-0.107-0.414-0.481-0.995-1.123v0l-0.517-0.571-0.749 0.502c-0.274 0.186-0.691 0.495-1.252 0.927v0c-0.283 0.218-0.639 0.518-1.067 0.901v0c-0.393 0.363-0.685 0.618-0.877 0.766v0l-1.049 0.81c-0.283 0.218-0.495 0.395-0.638 0.53v0c0.102 0.177 0.275 0.422 0.518 0.737v0l0.809 1.049c0.082 0.107 0.264 0.303 0.544 0.589v0c0.387 0.425 0.709 0.803 0.965 1.133v0c0.111 0.144 0.463 0.656 1.056 1.535v0l0.413 0.601c0.111 0.144 0.281 0.337 0.51 0.577 0.228 0.241 0.437 0.484 0.626 0.73v0l0.644 0.883c0.317 0.488 0.541 0.817 0.672 0.987v0c0.152 0.197 0.266 0.323 0.341 0.376v0l0.142 0.133c0.095 0.123 0.123 0.242 0.084 0.357-0.039 0.115-0.099 0.191-0.181 0.229v0c-0.139 0.073-0.3 0.18-0.481 0.32-0.187 0.144-0.356 0.262-0.507 0.353v0c-0.151 0.091-0.254 0.128-0.31 0.111-0.051-0.011-0.145-0.105-0.281-0.281v0l-0.705-1.129c-0.89-1.407-1.492-2.314-1.805-2.719v0c-1.149-1.489-2.02-2.562-2.613-3.22v0c-0.25-0.258-0.503-0.553-0.758-0.883-0.255-0.331-0.418-0.542-0.488-0.633v0c-0.255-0.331-0.437-0.582-0.545-0.755v0l-0.478 0.242c-0.345 0.215-0.64 0.417-0.885 0.606v0c-0.208 0.161-0.439 0.364-0.692 0.611v0c-0.254 0.256-0.485 0.464-0.693 0.624v0l-3.111 2.439-1.331 0.99c-0.167 0.103-0.392 0.264-0.675 0.482v0c0.157 0.236 0.404 0.573 0.742 1.011v0c0.263 0.385 0.693 0.964 1.29 1.738v0l1.07 1.435c0.215 0.311 0.559 0.774 1.032 1.387v0c0.284 0.368 0.671 0.836 1.16 1.404v0l0.884 1.08c0.325 0.422 0.584 0.779 0.778 1.073 0.202 0.295 0.357 0.512 0.464 0.651v0c0.107 0.139 0.144 0.242 0.111 0.31-0.033 0.068-0.135 0.168-0.305 0.299v0c-0.123 0.095-0.257 0.186-0.403 0.273-0.146 0.087-0.296 0.19-0.451 0.309v0c-0.123 0.095-0.24 0.113-0.353 0.056-0.109-0.052-0.237-0.175-0.385-0.367v0c-0.148-0.192-0.262-0.356-0.34-0.491v0c-0.313-0.516-1.024-1.492-2.132-2.927v0c-0.675-0.875-1.172-1.497-1.49-1.864v0c-0.247-0.286-0.634-0.771-1.161-1.455v0l-1.86-2.459c-0.197-0.299-0.444-0.641-0.74-1.026v0c-0.189-0.245-0.286-0.431-0.289-0.556 0.002-0.129 0.073-0.248 0.212-0.355v0l0.441-0.289c0.087-0.042 0.173-0.095 0.258-0.161v0c0.053-0.041 0.175-0.148 0.366-0.321 0.181-0.174 0.544-0.471 1.088-0.89v0c0.523-0.404 1.37-1.083 2.54-2.038v0c0.935-0.807 1.859-1.563 2.772-2.266v0c0.384-0.297 1.53-1.113 3.436-2.448v0c0.385-0.263 0.767-0.528 1.148-0.797 0.381-0.268 0.718-0.515 1.011-0.742v0c2.033-1.569 3.354-2.632 3.964-3.187v0c0.379-0.369 0.785-0.274 1.218 0.286v0c0.107 0.139 0.266 0.378 0.477 0.718v0c0.177 0.306 0.321 0.531 0.432 0.675v0l1.328 1.606c0.992 1.142 1.737 2.035 2.236 2.681v0c0.581 0.752 1.379 1.826 2.396 3.221v0c0.322 0.45 0.672 0.92 1.051 1.411v0c0.161 0.208 0.208 0.38 0.143 0.516-0.06 0.132-0.153 0.237-0.279 0.317-0.116 0.081-0.193 0.136-0.23 0.165z" fill="#454545" data-fill-palette-color="primary"></path><path d="M261.163 76.863c1.2-0.658 1.949-1.057 2.249-1.198v0c0.372-0.204 0.667-0.2 0.883 0.012 0.213 0.206 0.452 0.552 0.717 1.036v0c0.237 0.431 0.562 0.968 0.975 1.61 0.413 0.642 0.75 1.13 1.011 1.464v0c0.167 0.262 0.229 0.482 0.187 0.658-0.042 0.177-0.186 0.333-0.434 0.469v0c-0.077 0.042-0.304 0.14-0.682 0.293v0c-0.309 0.123-2.249 1.163-5.818 3.12v0l-6.57 3.602c-0.993 0.544-2.08 1.156-3.261 1.833-1.172 0.681-2.222 1.303-3.151 1.866-0.932 0.557-1.185 0.719-0.76 0.486v0c-0.307 0.168-0.545 0.099-0.714-0.208v0c-0.075-0.136-0.129-0.256-0.163-0.361v0c-0.028-0.092-0.105-0.254-0.231-0.484v0c-0.126-0.231-0.347-0.59-0.66-1.079v0c-0.339-0.521-0.568-0.888-0.684-1.101v0c-0.201-0.366-0.275-0.683-0.222-0.951 0.059-0.271 0.239-0.615 0.54-1.034v0l0.712-1.036c0.983-1.292 1.72-2.365 2.213-3.219v0c0.286-0.487 1.11-1.769 2.47-3.845v0l1.707-2.607-1.099 0.602-0.674 0.37c-0.154 0.084-0.352 0.185-0.595 0.303-0.234 0.12-0.491 0.269-0.771 0.445v0c-1.011 0.554-2.324 1.293-3.938 2.217-1.609 0.921-2.563 1.501-2.862 1.742v0c-0.085 0.07-0.195 0.142-0.331 0.216v0c-0.195 0.107-0.337 0.135-0.427 0.084-0.095-0.048-0.189-0.184-0.282-0.41v0c-0.172-0.313-0.392-0.665-0.66-1.057-0.266-0.4-0.519-0.772-0.762-1.116v0c-0.2-0.267-0.257-0.482-0.169-0.645 0.087-0.163 0.369-0.364 0.846-0.602v0c0.697-0.382 1.914-1.087 3.648-2.115v0c1.802-1.088 3.375-2.012 4.719-2.772v0c1.377-0.755 2.791-1.492 4.242-2.21v0c1.804-0.943 3.038-1.596 3.7-1.959v0c0.887-0.486 1.519-0.867 1.898-1.144v0c0.326-0.233 0.539-0.376 0.639-0.431v0c0.349-0.191 0.618-0.262 0.807-0.212 0.192 0.041 0.341 0.159 0.448 0.354v0c0.055 0.1 0.156 0.299 0.303 0.595 0.147 0.296 0.437 0.679 0.871 1.148v0c0.158 0.19 0.295 0.392 0.412 0.604v0c0.065 0.118 0.147 0.289 0.246 0.512 0.093 0.226 0.235 0.513 0.426 0.861v0c0.246 0.449 0.276 0.917 0.089 1.404-0.183 0.493-0.499 1.088-0.946 1.787v0l-0.362 0.579c-0.296 0.47-0.597 1-0.904 1.591v0l-0.431 0.813z" fill="#454545" data-fill-palette-color="primary"></path><path d="M272.045 95.792c0.631 1.822 0.741 3.296 0.332 4.422-0.403 1.124-0.62 1.712-0.651 1.766v0c-0.074 0.261-0.184 0.417-0.331 0.467v0c-0.083 0.029-0.18 0.016-0.291-0.038v0c-0.105-0.035-0.326-0.098-0.664-0.187-0.34-0.096-0.528-0.195-0.563-0.298v0c-0.037-0.108-0.031-0.264 0.02-0.467v0l0.106-0.282c0.604-1.985 0.71-3.545 0.317-4.679v0c-0.498-1.44-1.205-2.418-2.119-2.936-0.918-0.51-1.877-0.591-2.877-0.245v0c-0.86 0.298-1.485 0.86-1.877 1.687-0.391 0.827-0.688 1.836-0.889 3.026v0c-0.02 0.335-0.029 0.677-0.03 1.027v0c-0.033 1.181-0.14 2.242-0.322 3.182-0.175 0.938-0.608 1.88-1.3 2.825-0.695 0.94-1.73 1.647-3.106 2.124v0c-2.363 0.818-4.256 0.574-5.678-0.731-1.431-1.309-2.49-2.958-3.177-4.945v0c-0.397-1.147-0.492-2.276-0.286-3.389 0.2-1.111 0.429-1.935 0.685-2.473v0c0.112-0.274 0.282-0.39 0.511-0.348v0c0.051 0.004 0.248 0.036 0.589 0.095 0.346 0.051 0.541 0.141 0.585 0.268v0l0.023 0.067c0.02 0.057 0.027 0.119 0.022 0.186-0.014 0.062-0.054 0.143-0.119 0.244-0.056 0.105-0.118 0.226-0.185 0.363v0c-0.179 0.369-0.303 1.011-0.371 1.926-0.071 0.909-0.015 1.625 0.166 2.147v0c0.384 1.108 0.985 2.084 1.805 2.927 0.818 0.837 1.987 0.992 3.51 0.465v0c0.65-0.225 1.114-0.707 1.393-1.445 0.286-0.741 0.544-1.829 0.775-3.264v0l0.275-1.615c0.336-1.75 0.841-3.205 1.517-4.366 0.675-1.161 1.796-2.013 3.363-2.555v0c1.293-0.448 2.549-0.465 3.769-0.053 1.218 0.406 2.272 1.082 3.163 2.029 0.891 0.947 1.528 1.971 1.909 3.073z" fill="#454545" data-fill-palette-color="primary"></path><path d="M31.488 180.679c0.383 1.477 0.187 2.874-0.588 4.192-0.784 1.313-2.268 2.326-4.453 3.039v0c-1.429 0.467-2.666 0.534-3.71 0.202-1.038-0.334-1.852-0.849-2.44-1.543-0.588-0.694-0.982-1.346-1.181-1.954v0c-0.184-0.564-0.557-1.499-1.118-2.805v0c-0.339-0.754-0.599-1.368-0.782-1.84v0c-1.95 0.587-3.27 0.994-3.962 1.221v0c-2.736 0.894-4.209 1.41-4.419 1.549v0c-0.199 0.108-0.394 0.129-0.585 0.064-0.198-0.063-0.352-0.176-0.462-0.338-0.108-0.156-0.154-0.319-0.138-0.487v0c-0.002-0.07-0.051-0.253-0.147-0.548v0c-0.207-0.634-0.469-1.293-0.784-1.977v0c-0.156-0.325-0.161-0.568-0.015-0.729 0.144-0.168 0.405-0.313 0.783-0.437v0c0.461-0.151 0.885-0.275 1.272-0.373v0l2.662-0.838 3.741-1.148c4.499-1.335 8.001-2.412 10.506-3.23v0c0.756-0.247 1.205-0.404 1.346-0.472v0c0.447-0.196 0.712-0.307 0.795-0.334v0c0.545-0.178 0.856-0.148 0.933 0.089v0c0.034 0.103 0.094 0.32 0.182 0.653 0.088 0.333 0.228 0.794 0.42 1.384v0c0.054 0.167 0.204 0.593 0.449 1.279 0.245 0.686 0.492 1.41 0.742 2.172v0c0.364 1.115 0.682 2.185 0.953 3.209zM21.105 182.986c0.255 0.782 0.724 1.434 1.405 1.956 0.681 0.522 1.621 0.587 2.819 0.196v0c1.281-0.419 2.17-1 2.664-1.743 0.488-0.741 0.663-1.649 0.525-2.724v0c-0.201-1.679-0.481-2.959-0.841-3.842v0c-0.589 0.193-1.035 0.327-1.335 0.405v0c-1.194 0.34-2.051 0.56-2.572 0.659v0c-0.764 0.157-1.603 0.41-2.517 0.759v0l-1.212 0.459 0.388 1.512c0.129 0.589 0.354 1.377 0.676 2.363z" fill="#454545" data-fill-palette-color="primary"></path><path d="M29.432 197.924l0.631 1.279c0.214 0.413 0.431 0.786 0.65 1.12v0c0.086 0.107 0.194 0.286 0.325 0.538v0c0.143 0.275 0.238 0.488 0.286 0.638v0l0.3 0.709 0.926-0.367 1.464-0.647 2.908-1.442 2.303-1.117c0.302-0.134 0.52-0.198 0.652-0.191 0.127 0.01 0.258 0.117 0.394 0.319v0c0.103 0.197 0.445 0.718 1.029 1.563v0c0.099 0.146 0.255 0.426 0.469 0.838v0c0.326 0.628 0.57 1.162 0.731 1.603v0c0.07 0.237 0.094 0.392 0.07 0.465-0.023 0.073-0.091 0.146-0.204 0.22-0.117 0.068-0.216 0.139-0.3 0.213v0c-0.317 0.165-0.862 0.41-1.634 0.735v0c-1.416 0.637-2.378 1.088-2.887 1.352v0c-0.257 0.134-1.105 0.498-2.543 1.093v0c-1.551 0.654-2.554 1.099-3.009 1.336v0l-5.79 3.088c-2.201 1.144-3.527 1.882-3.977 2.215v0l-0.062 0.033c-0.215 0.112-0.367 0.141-0.456 0.088-0.088-0.053-0.156-0.132-0.202-0.237-0.038-0.102-0.068-0.174-0.09-0.215v0c-0.039-0.177-0.119-0.383-0.24-0.616v0c-0.04-0.078-0.195-0.324-0.464-0.739v0c-0.343-0.513-0.831-1.38-1.465-2.6v0l-0.028-0.054c-0.143-0.275-0.125-0.459 0.055-0.552v0c0.371-0.193 1.103-0.581 2.198-1.165 1.094-0.584 1.88-1.038 2.357-1.362v0c0.729-0.424 1.446-0.82 2.153-1.187v0c0.284-0.17 0.731-0.414 1.34-0.73v0l-0.447-0.862-0.685-1.251-0.31-0.51-0.268-0.602c-0.155-0.299-0.269-0.54-0.341-0.723v0l-1.904 0.875c-0.719 0.298-1.629 0.732-2.729 1.305v0l-1.498 0.778c-1.059 0.55-1.685 0.902-1.879 1.056v0c-0.221 0.16-0.383 0.199-0.486 0.116-0.104-0.083-0.193-0.196-0.268-0.34-0.078-0.15-0.132-0.254-0.163-0.314v0c-0.063-0.165-0.176-0.44-0.338-0.826-0.166-0.392-0.309-0.705-0.431-0.939v0l-0.497-0.824c-0.095-0.125-0.403-0.615-0.923-1.469v0c-0.29-0.427-0.133-0.797 0.472-1.111v0l1.167-0.561 2.154-1.051c0.431-0.224 0.838-0.42 1.221-0.589v0l3.432-1.749c0.784-0.407 1.278-0.676 1.484-0.805v0c0.423-0.296 0.997-0.632 1.721-1.008v0l1.808-0.906c0.308-0.137 0.696-0.327 1.163-0.57v0c0.55-0.286 1.721-0.818 3.511-1.596v0l2.075-0.964c0.161-0.084 0.288-0.112 0.378-0.083 0.085 0.032 0.157 0.105 0.216 0.218v0l0.174 0.4c0.098 0.276 0.24 0.623 0.427 1.042 0.197 0.422 0.397 0.83 0.603 1.226v0l0.731 1.34c0.136 0.203 0.275 0.442 0.418 0.717v0l0.014 0.027c0.084 0.161 0.015 0.3-0.206 0.415v0c-0.027 0.037-0.406 0.249-1.139 0.637-0.729 0.394-1.597 0.852-2.601 1.375v0c-0.628 0.326-1.481 0.747-2.558 1.261v0z" fill="#454545" data-fill-palette-color="primary"></path><path d="M46.029 208.096c0.146 0.252 0.304 0.487 0.476 0.705 0.171 0.218 0.313 0.406 0.426 0.565v0c0.285 0.401 0.479 0.698 0.582 0.889v0c0.14 0.232 0.205 0.417 0.195 0.555-0.005 0.144-0.071 0.261-0.197 0.351v0c-0.093 0.066-0.2 0.126-0.32 0.178-0.122 0.062-0.232 0.115-0.332 0.161v0c-1.674 0.891-3.332 1.903-4.974 3.037v0c-0.479 0.315-1.205 0.818-2.177 1.509v0l-3.256 2.348c-0.259 0.217-0.532 0.427-0.817 0.63v0l-1.062 0.792c-0.912 0.706-1.594 1.219-2.045 1.539v0c-0.341 0.242-0.555 0.377-0.642 0.406v0c-0.089 0.038-0.303 0.178-0.644 0.42v0l-1.466 1.079c-0.204 0.178-0.468 0.382-0.793 0.612v0c-0.225 0.184-0.422 0.221-0.591 0.11-0.175-0.107-0.342-0.295-0.499-0.563v0l-1.751-2.465c-0.213-0.254-0.277-0.465-0.189-0.634 0.087-0.169 0.275-0.369 0.565-0.6v0c0.099-0.128 0.446-0.35 1.041-0.665v0c0.556-0.288 1.013-0.558 1.371-0.812v0c0.126-0.09 1.389-0.891 3.786-2.403v0c1.776-1.096 2.747-1.703 2.912-1.82v0l2.687-1.822 2.5-1.701 1.5-0.978 1.008-0.641 1.137-0.808c0.703-0.5 1.184-0.568 1.442-0.205v0c0.062 0.088 0.105 0.165 0.127 0.231z" fill="#454545" data-fill-palette-color="primary"></path><path d="M52.626 216.808l-1.451 1.261c-2.353 2.023-3.625 3.124-3.818 3.302v0l-3.5 3.2c-0.312 0.289-0.574 0.546-0.787 0.772v0l-1.434 1.383c-0.341 0.316-0.561 0.501-0.658 0.554v0c-0.113 0.077-0.204 0.157-0.274 0.24-0.079 0.083-0.134 0.138-0.164 0.165v0c-0.064 0.06-0.095 0.106-0.091 0.14v0l0.484 0.627c0.446 0.551 0.837 0.988 1.173 1.311v0l4.215 4.461c0 0 0.765 0.876 2.296 2.628v0l1.036 1.163c0.15 0.192 0.183 0.327 0.099 0.404v0c-0.03 0.027-0.076 0.057-0.139 0.088-0.063 0.031-0.12 0.069-0.169 0.115v0l-1.12 1.038c-0.292 0.27-0.864 0.887-1.717 1.851v0l-0.927 1.052-0.098 0.133c-0.084 0.078-0.177 0.086-0.28 0.025-0.098-0.056-0.245-0.191-0.443-0.404v0l-1.612-1.8-2.752-3.06c-0.376-0.406-0.927-0.951-1.654-1.637v0c-0.313-0.308-0.662-0.655-1.048-1.042-0.381-0.382-0.753-0.768-1.115-1.159v0l-0.362-0.436c-0.077-0.113-0.241-0.305-0.493-0.577v0l-1.039-1.077c-0.193-0.179-0.434-0.424-0.723-0.736v0c-0.192-0.208-0.282-0.359-0.269-0.454 0.023-0.095 0.096-0.19 0.218-0.285 0.118-0.1 0.217-0.187 0.296-0.26v0c0.356-0.33 0.995-0.875 1.916-1.637v0l2.576-2.248 1.109-1.11c0.209-0.23 0.465-0.5 0.767-0.807 0.303-0.308 0.622-0.618 0.959-0.929v0c-0.549 0.508 0.051 0.04 1.799-1.405 1.758-1.445 2.83-2.346 3.216-2.703v0l2.731-2.572 1.51-1.494 0.03-0.028c0.129-0.119 0.275-0.09 0.44 0.089v0l0.294 0.361c0.078 0.084 0.171 0.195 0.28 0.333 0.109 0.138 0.292 0.345 0.549 0.622v0l0.206 0.223c0.087 0.094 0.066 0.2-0.062 0.319z" fill="#454545" data-fill-palette-color="primary"></path><path d="M64.397 256.649c-0.048 0.242-0.093 0.391-0.134 0.444v0c-0.106 0.14-0.317 0.089-0.634-0.15v0l-1.902-1.441c-0.07-0.053-0.096-0.17-0.077-0.35 0.024-0.176 0.056-0.347 0.095-0.512 0.045-0.16 0.082-0.298 0.109-0.412v0c0.048-0.242 0.192-0.772 0.431-1.589 0.244-0.813 0.444-1.452 0.601-1.916v0c0.081-0.218 0.173-0.558 0.278-1.02 0.099-0.466 0.167-0.795 0.203-0.988v0c0.089-0.262 0.13-0.456 0.122-0.58-0.006-0.115-0.071-0.219-0.194-0.312v0c-0.124-0.094-0.288-0.201-0.492-0.322-0.195-0.122-0.403-0.255-0.625-0.397v0c-0.174-0.072-0.628-0.387-1.365-0.945v0c-0.516-0.391-1.03-0.755-1.544-1.093v0c-0.177-0.101-0.47-0.306-0.878-0.615v0l-1.37-1.089c-0.091-0.069-0.185-0.085-0.281-0.047-0.096 0.037-0.193 0.099-0.292 0.184-0.089 0.085-0.16 0.145-0.213 0.181v0l-0.662 0.539c-0.241 0.206-0.523 0.445-0.847 0.716-0.329 0.267-0.626 0.519-0.891 0.758v0l-1.151 0.917-0.796 0.615c-0.212 0.169-0.365 0.269-0.456 0.301-0.093 0.022-0.183 0.001-0.269-0.064v0l-1.563-1.185c-0.086-0.065-0.102-0.133-0.05-0.202v0c0.028-0.038 0.157-0.135 0.386-0.292v0c0.392-0.227 0.77-0.47 1.134-0.726v0c2.307-1.694 3.774-2.828 4.402-3.401v0c0.833-0.764 2.023-1.655 3.572-2.672v0c0.608-0.478 1.171-0.91 1.69-1.294v0c0.236-0.211 0.541-0.452 0.918-0.726v0c1.269-0.983 2.48-1.884 3.632-2.702v0l2.261-1.611c0.555-0.442 1.159-0.872 1.814-1.29v0c0.306-0.191 0.473-0.162 0.503 0.09v0c0.055 0.151 0.042 0.336-0.039 0.553-0.077 0.213-0.135 0.363-0.176 0.451v0c-0.105 0.25-0.437 1.66-0.997 4.229v0c-0.195 0.994-0.532 2.227-1.013 3.698v0c-0.209 0.645-0.557 2.115-1.044 4.409v0c-0.224 1.133-0.394 1.904-0.511 2.315v0c-0.183 0.834-0.561 2.907-1.133 6.219v0l-0.179 0.905c-0.277 1.203-0.401 2.009-0.373 2.419zM64.077 242.67c0.136 0.077 0.247 0.149 0.333 0.214 0.091 0.069 0.167 0.114 0.228 0.135 0.066 0.025 0.113 0.018 0.142-0.02v0c0.028-0.038 0.055-0.128 0.078-0.27v0c0.036-0.226 0.172-0.825 0.409-1.796 0.237-0.971 0.433-1.688 0.59-2.153v0c0.144-0.559 0.274-1.014 0.389-1.367 0.119-0.358 0.192-0.611 0.22-0.759v0c0.033-0.11 0.058-0.227 0.075-0.35 0.026-0.124 0.044-0.225 0.052-0.303 0.003-0.082-0.014-0.138-0.052-0.166v0c-0.048-0.037-0.207 0.055-0.475 0.275-0.259 0.218-0.46 0.383-0.603 0.494v0c-1.094 0.786-1.911 1.39-2.449 1.811v0c-0.269 0.21-0.616 0.455-1.039 0.735-0.419 0.274-0.708 0.466-0.866 0.574v0c-0.184 0.131-0.317 0.251-0.398 0.358v0c-0.081 0.107-0.044 0.22 0.111 0.338v0c0.371 0.281 0.95 0.699 1.74 1.254 0.789 0.555 1.294 0.887 1.515 0.996z" fill="#454545" data-fill-palette-color="primary"></path><path d="M87.814 246.778c0.641-1.209 1.049-1.954 1.222-2.236v0c0.199-0.375 0.447-0.533 0.744-0.475 0.291 0.055 0.681 0.213 1.169 0.471v0c0.435 0.231 1.001 0.501 1.699 0.811 0.698 0.309 1.247 0.532 1.648 0.668v0c0.283 0.128 0.456 0.276 0.518 0.447 0.062 0.17 0.027 0.381-0.105 0.631v0c-0.041 0.077-0.177 0.284-0.409 0.619v0c-0.191 0.273-1.24 2.207-3.149 5.803v0l-3.512 6.618c-0.531 1-1.104 2.108-1.718 3.323-0.605 1.213-1.142 2.309-1.609 3.29-0.473 0.978-0.596 1.252-0.368 0.823v0c-0.164 0.31-0.401 0.382-0.711 0.218v0c-0.137-0.073-0.248-0.143-0.334-0.212v0c-0.074-0.062-0.227-0.155-0.459-0.278v0c-0.232-0.123-0.614-0.303-1.145-0.538v0c-0.57-0.249-0.962-0.43-1.176-0.545v0c-0.369-0.196-0.605-0.42-0.707-0.673-0.099-0.259-0.138-0.646-0.117-1.16v0l0.026-1.257c0.112-1.62 0.139-2.921 0.081-3.906v0c-0.029-0.565-0.044-2.088-0.047-4.569v0l-0.006-3.117-0.587 1.108-0.361 0.678c-0.082 0.155-0.192 0.348-0.33 0.58-0.129 0.229-0.262 0.494-0.4 0.796v0c-0.54 1.018-1.232 2.357-2.074 4.015-0.839 1.653-1.318 2.662-1.435 3.028v0c-0.033 0.105-0.085 0.226-0.158 0.362v0c-0.104 0.196-0.208 0.298-0.31 0.305-0.106 0.013-0.26-0.05-0.461-0.188v0c-0.316-0.167-0.693-0.341-1.132-0.52-0.442-0.189-0.858-0.36-1.249-0.515v0c-0.314-0.113-0.479-0.262-0.496-0.446-0.017-0.184 0.109-0.507 0.376-0.968v0c0.373-0.703 1.002-1.96 1.887-3.771v0c0.909-1.899 1.716-3.534 2.422-4.908v0c0.736-1.387 1.513-2.78 2.331-4.177v0c0.99-1.779 1.662-3.002 2.016-3.669v0c0.474-0.893 0.793-1.559 0.958-1.998v0c0.145-0.373 0.244-0.611 0.297-0.712v0c0.186-0.351 0.372-0.558 0.558-0.62 0.183-0.071 0.372-0.054 0.569 0.05v0c0.101 0.054 0.295 0.164 0.58 0.331 0.285 0.167 0.738 0.327 1.359 0.481v0c0.236 0.072 0.462 0.165 0.676 0.279v0c0.119 0.063 0.281 0.161 0.486 0.292 0.202 0.138 0.478 0.3 0.829 0.486v0c0.452 0.24 0.734 0.615 0.846 1.124 0.117 0.512 0.181 1.183 0.191 2.013v0l0.015 0.683c0.011 0.555 0.05 1.164 0.118 1.826v0l0.086 0.916z" fill="#454545" data-fill-palette-color="primary"></path><path d="M114.023 253.017c0.249 0.107 0.383 0.22 0.402 0.339 0.019 0.119-0.003 0.268-0.066 0.446-0.07 0.176-0.118 0.306-0.144 0.389v0c-0.068 0.282-0.179 0.456-0.334 0.52-0.163 0.069-0.383 0.059-0.66-0.028v0c-0.167-0.053-0.492-0.145-0.973-0.275-0.482-0.131-1.057-0.313-1.726-0.545v0l-0.125-0.04-1.866 5.709-1.799 5.561c-0.266 0.842-0.556 1.927-0.869 3.256-0.314 1.329-0.514 2.163-0.6 2.504v0c-0.405 1.731-0.641 2.703-0.708 2.914v0c-0.113 0.424-0.295 0.667-0.548 0.728-0.253 0.062-0.643 0.009-1.17-0.157v0l-1.376-0.477c-0.103-0.032-1.822-0.611-5.157-1.734v0l-1.957-0.65c-0.206-0.065-0.243-0.306-0.111-0.724v0c0.047-0.148 0.156-0.428 0.329-0.84v0c0.218-0.532 0.373-0.946 0.466-1.242v0c0.13-0.567 0.41-1.535 0.843-2.904v0c0.578-1.832 1.223-3.784 1.934-5.857 0.711-2.073 1.278-3.622 1.701-4.647v0c0.213-0.541 0.466-1.274 0.758-2.2v0c0.327-1.035 0.541-1.826 0.644-2.373v0l-0.56-0.209-2.641-0.77c-0.167-0.053-0.198-0.246-0.092-0.58v0l0.248-0.685c0.055-0.174 0.116-0.278 0.184-0.314 0.068-0.035 0.166-0.032 0.294 0.009v0c0.084 0.026 0.187 0.07 0.309 0.129 0.114 0.064 0.258 0.124 0.432 0.179v0l6.751 2.089 5.524 1.681c0.869 0.246 1.757 0.512 2.663 0.799z" fill="#454545" data-fill-palette-color="primary"></path><path d="M122.826 264.037l1.408 0.224c0.461 0.063 0.891 0.102 1.291 0.115v0c0.137-0.008 0.346 0.007 0.626 0.046v0c0.307 0.042 0.536 0.087 0.686 0.134v0l0.753 0.165 0.235-0.968 0.317-1.569 0.501-3.207 0.418-2.525c0.065-0.324 0.139-0.539 0.221-0.643 0.081-0.098 0.244-0.143 0.488-0.137v0c0.22 0.03 0.843 0.051 1.869 0.062v0c0.176 0.004 0.495 0.037 0.956 0.101v0c0.701 0.096 1.278 0.206 1.731 0.329v0c0.234 0.08 0.374 0.15 0.42 0.211 0.046 0.061 0.067 0.159 0.061 0.294-0.012 0.134-0.011 0.257 0.001 0.367v0c-0.049 0.354-0.163 0.94-0.343 1.76v0c-0.297 1.524-0.485 2.57-0.563 3.137v0c-0.039 0.287-0.231 1.19-0.576 2.707v0c-0.362 1.644-0.577 2.72-0.646 3.228v0l-0.822 6.511c-0.337 2.457-0.5 3.966-0.488 4.525v0l-0.009 0.07c-0.033 0.24-0.097 0.381-0.191 0.423-0.094 0.042-0.198 0.051-0.31 0.029-0.105-0.028-0.181-0.045-0.228-0.051v0c-0.167-0.071-0.381-0.124-0.641-0.16v0c-0.087-0.012-0.377-0.028-0.871-0.048v0c-0.617-0.017-1.606-0.118-2.969-0.305v0l-0.06-0.008c-0.307-0.042-0.447-0.163-0.42-0.364v0c0.057-0.414 0.163-1.236 0.318-2.467 0.155-1.231 0.238-2.134 0.249-2.711v0c0.074-0.84 0.166-1.654 0.274-2.442v0c0.025-0.33 0.084-0.836 0.177-1.517v0l-0.961-0.132-1.417-0.163-0.596-0.041-0.646-0.13c-0.334-0.046-0.596-0.092-0.787-0.138v0l-0.385 2.059c-0.172 0.759-0.342 1.753-0.51 2.982v0l-0.23 1.673c-0.162 1.182-0.236 1.896-0.222 2.143v0c0.003 0.273-0.059 0.427-0.187 0.464-0.128 0.037-0.271 0.044-0.431 0.023-0.167-0.023-0.284-0.039-0.351-0.049v0c-0.171-0.044-0.461-0.111-0.87-0.201-0.416-0.091-0.754-0.154-1.015-0.19v0l-0.96-0.07c-0.157 0.006-0.735-0.026-1.732-0.095v0c-0.516-0.009-0.727-0.351-0.635-1.026v0l0.216-1.276 0.386-2.366c0.066-0.481 0.141-0.926 0.224-1.337v0l0.553-3.812c0.12-0.875 0.186-1.434 0.2-1.677v0c0.003-0.517 0.06-1.179 0.17-1.987v0l0.305-2c0.066-0.331 0.134-0.757 0.206-1.278v0c0.084-0.614 0.326-1.877 0.723-3.789v0l0.411-2.25c0.025-0.18 0.075-0.299 0.151-0.357 0.075-0.051 0.176-0.068 0.303-0.05v0l0.426 0.089c0.282 0.079 0.648 0.164 1.099 0.253 0.458 0.083 0.907 0.155 1.348 0.215v0l1.516 0.178c0.244 0.006 0.52 0.03 0.827 0.072v0l0.03 0.004c0.18 0.025 0.254 0.161 0.22 0.408v0c0.015 0.043-0.031 0.475-0.137 1.298-0.099 0.823-0.226 1.796-0.38 2.918v0c-0.096 0.701-0.245 1.64-0.447 2.816v0z" fill="#454545" data-fill-palette-color="primary"></path><path d="M155.173 277.64c0.626 0.573 0.943 0.971 0.953 1.193v0c0.002 0.04-0.052 0.12-0.161 0.24v0c-0.189 0.143-0.681 0.232-1.476 0.267v0c-0.579 0.025-0.948 0.001-1.107-0.073-0.158-0.067-0.278-0.19-0.36-0.369-0.088-0.172-0.155-0.3-0.199-0.386v0c-0.073-0.132-0.363-0.5-0.868-1.105-0.499-0.612-0.877-1.078-1.134-1.398v0c-1.237-1.45-2.314-2.766-3.229-3.948v0c-0.565-0.724-1.604-1.974-3.119-3.749v0l-0.564-0.634-2.408-2.758-0.073 1.339c-0.059 0.664-0.048 1.459 0.034 2.387v0c0.094 0.617 0.208 2.217 0.341 4.802 0.14 2.585 0.236 4.473 0.288 5.665v0c0.016 0.357-0.109 0.588-0.374 0.694-0.258 0.112-0.566 0.177-0.923 0.193v0c-0.155 0.007-0.255-0.056-0.301-0.19-0.053-0.126-0.086-0.266-0.1-0.42-0.02-0.154-0.031-0.255-0.033-0.303v0c-0.062-0.348-0.109-0.866-0.139-1.552v0c-0.019-0.444-0.02-0.775-0.003-0.992v0c-0.032-1.2-0.093-3.285-0.182-6.256-0.083-2.978-0.176-5.65-0.28-8.013v0c-0.111-2.539-0.209-4.015-0.295-4.43v0c-0.028-0.181-0.048-0.413-0.061-0.696v0c-0.015-0.337 0.027-0.551 0.124-0.643 0.09-0.092 0.237-0.142 0.439-0.151v0c0.444-0.019 0.876-0.028 1.294-0.026v0l3.619-0.087c1.327-0.058 2.717 0.114 4.172 0.515 1.455 0.402 2.21 1.233 2.265 2.492v0c0.052 1.192-0.348 2.14-1.201 2.846-0.853 0.699-1.823 1.193-2.911 1.483-1.08 0.29-2.031 0.453-2.853 0.489v0c-0.283 0.012-0.438 0.009-0.466-0.01v0c0.141 0.129 1.067 1.262 2.78 3.401v0c5.147 6.306 7.984 9.7 8.511 10.183zM141.309 262.843c0.727-0.032 1.279-0.069 1.655-0.113v0c1.278-0.096 2.267-0.227 2.968-0.393v0c1.009-0.22 1.77-0.496 2.282-0.828 0.505-0.332 0.743-0.829 0.714-1.488v0c-0.019-0.444-0.269-0.818-0.747-1.122-0.478-0.296-1.048-0.514-1.709-0.653-0.66-0.133-1.233-0.189-1.718-0.168v0c-0.553-0.003-1.328 0.018-2.325 0.061v0l-1.121 0.049z" fill="#454545" data-fill-palette-color="primary"></path><path d="M170.315 252.358c1.49 0.579 2.794 1.513 3.911 2.804 1.117 1.29 1.986 2.598 2.607 3.924 0.626 1.317 1.029 2.377 1.208 3.18v0c0.298 1.335 0.435 2.935 0.41 4.798-0.025 1.864-0.558 3.713-1.599 5.548-1.042 1.828-2.868 3.034-5.48 3.618v0c-3.585 0.801-6.599-0.711-9.043-4.537v0c-1.091-1.731-1.938-3.742-2.539-6.031v0c-0.425-1.901-0.428-3.8-0.01-5.696 0.412-1.895 1.157-3.505 2.236-4.831 1.07-1.33 2.296-2.15 3.677-2.459v0c1.256-0.281 2.198-0.457 2.825-0.527 0.633-0.072 1.232-0.003 1.797 0.209zM170.799 274.452c2.289-0.512 3.783-1.847 4.481-4.006 0.69-2.164 0.713-4.69 0.068-7.578v0c-0.396-1.77-1.025-3.349-1.888-4.738-0.861-1.382-1.872-2.413-3.033-3.093-1.16-0.68-2.369-0.88-3.625-0.598v0c-0.105 0.024-0.391 0.087-0.858 0.191-0.46 0.103-0.848 0.269-1.163 0.499-0.308 0.228-0.57 0.525-0.786 0.89v0c-0.552 0.869-1.005 1.654-1.359 2.355-0.353 0.707-0.643 1.698-0.869 2.971-0.227 1.273-0.169 2.676 0.174 4.209v0c0.406 1.816 1.007 3.456 1.805 4.921 0.791 1.467 1.782 2.582 2.975 3.345 1.186 0.764 2.545 0.975 4.078 0.632z" fill="#454545" data-fill-palette-color="primary"></path><path d="M193.427 244.407c0.042 0.099 0.137 0.37 0.287 0.811 0.156 0.439 0.367 0.976 0.633 1.61v0c0.241 0.572 0.594 1.333 1.061 2.285v0c0.233 0.553-0.005 0.978-0.713 1.276v0l-5.386 2.268 1.26 3.177c0.128 0.356 0.483 1.226 1.067 2.612v0c0.602 1.429 1.194 2.81 1.778 4.144 0.592 1.338 1.094 2.494 1.504 3.469v0l0.558 1.247 0.062 0.149c0.078 0.186 0.101 0.309 0.067 0.366-0.031 0.064-0.091 0.115-0.177 0.152-0.081 0.034-0.14 0.059-0.178 0.075v0l-2.078 0.874c-0.248 0.105-0.408 0.124-0.479 0.06-0.077-0.062-0.162-0.202-0.254-0.42-0.089-0.211-0.156-0.37-0.2-0.475v0l-1.475-3.844c-1.265-3.351-2.094-5.496-2.49-6.434v0c-0.222-0.528-0.579-1.314-1.069-2.358v0l-0.711-1.609c-1.466 0.617-2.945 1.265-4.436 1.944v0l-0.939 0.428c-0.267 0.112-0.48 0.118-0.64 0.017-0.16-0.101-0.251-0.257-0.273-0.466v0l-0.284-0.78c-0.46-1.196-0.9-2.294-1.321-3.294v0c-0.207-0.491-0.34-0.782-0.401-0.874v0l-0.09-0.214c-0.094-0.224-0.104-0.377-0.029-0.46 0.077-0.077 0.206-0.153 0.386-0.228v0l3.029-1.275 1.699-0.759c1.04-0.482 1.775-0.813 2.203-0.994v0l1.848-0.745c1.491-0.576 2.652-1.04 3.485-1.39v0c0.615-0.259 1.007-0.439 1.177-0.54v0c0.439-0.207 0.785-0.272 1.037-0.195 0.243 0.073 0.404 0.203 0.482 0.39z" fill="#454545" data-fill-palette-color="primary"></path><path d="M206.417 235.426c1.598 0.038 3.141 0.475 4.631 1.309 1.489 0.834 2.751 1.769 3.785 2.806 1.036 1.027 1.775 1.887 2.216 2.58v0c0.734 1.155 1.406 2.613 2.015 4.375 0.609 1.762 0.736 3.682 0.38 5.761-0.359 2.073-1.667 3.828-3.925 5.264v0c-3.1 1.971-6.449 1.573-10.047-1.196v0c-1.615-1.258-3.094-2.861-4.437-4.811v0c-1.045-1.644-1.693-3.429-1.943-5.355-0.256-1.922-0.102-3.69 0.462-5.302 0.555-1.615 1.429-2.802 2.624-3.562v0c1.086-0.691 1.912-1.176 2.477-1.455 0.571-0.283 1.158-0.421 1.762-0.414zM214.375 256.043c1.979-1.259 2.931-3.022 2.855-5.29-0.086-2.27-0.922-4.654-2.51-7.151v0c-0.973-1.53-2.101-2.802-3.385-3.814-1.28-1.007-2.581-1.634-3.903-1.88-1.322-0.245-2.527-0.023-3.613 0.668v0c-0.091 0.058-0.338 0.215-0.742 0.472-0.398 0.253-0.706 0.541-0.925 0.864-0.213 0.319-0.358 0.687-0.436 1.104v0c-0.224 1.005-0.383 1.897-0.478 2.677-0.092 0.785-0.028 1.815 0.191 3.089 0.219 1.274 0.75 2.574 1.593 3.9v0c0.998 1.57 2.121 2.909 3.369 4.016 1.242 1.111 2.553 1.823 3.934 2.135 1.375 0.316 2.725 0.052 4.05-0.79z" fill="#454545" data-fill-palette-color="primary"></path><path d="M214.438 229.627l2.801-2.541c0.164-0.151 0.295-0.217 0.394-0.199 0.1 0.009 0.202 0.07 0.308 0.184v0c0.059 0.064 0.174 0.179 0.343 0.343 0.165 0.159 0.428 0.435 0.79 0.827v0c0.137 0.149 0.344 0.407 0.619 0.776 0.281 0.374 0.519 0.682 0.714 0.923v0c0.742 1.003 1.24 1.644 1.496 1.922v0l1.488 1.613c0.402 0.436 0.725 0.766 0.968 0.99v0c0.004-0.453-0.024-0.876-0.084-1.269v0l-0.184-2.004c-0.07-0.861-0.182-1.913-0.337-3.155-0.155-1.242-0.282-2.211-0.383-2.906v0c0.006-0.033-0.016-0.37-0.066-1.012v0c-0.014-0.115-0.037-0.448-0.067-0.997-0.03-0.559-0.098-0.941-0.204-1.146v0c-0.088-0.194-0.1-0.348-0.038-0.46 0.057-0.117 0.131-0.226 0.221-0.327 0.095-0.096 0.167-0.167 0.216-0.213v0c0.178-0.164 0.348-0.339 0.507-0.523 0.165-0.179 0.312-0.343 0.443-0.49v0l0.104-0.096c0.292-0.27 0.491-0.347 0.596-0.234v0c0.059 0.064 0.086 0.168 0.08 0.311-0.006 0.143-0.009 0.229-0.01 0.258v0c0.013 0.501 0.046 1.273 0.099 2.315 0.063 1.042 0.126 1.956 0.189 2.741v0c0.117 0.882 0.259 2.09 0.426 3.623 0.167 1.533 0.257 2.472 0.272 2.816v0c0.019 0.349 0.116 0.952 0.291 1.808 0.175 0.866 0.292 1.331 0.352 1.395v0c0.073 0.079 0.257 0.12 0.553 0.123 0.286 0.002 0.539 0.008 0.758 0.016v0c0.313 0.051 0.888 0.103 1.725 0.156 0.832 0.058 1.482 0.096 1.949 0.115v0l1.033 0.092c1.995 0.205 3.346 0.298 4.053 0.279v0c0.782 0.003 1.663 0.039 2.643 0.107 0.984 0.073 1.555 0.111 1.713 0.113v0l0.134 0.055c0.064 0.069 0.062 0.172-0.006 0.307-0.068 0.136-0.174 0.239-0.32 0.309v0l-0.753 0.75-1.208 1.196c-0.388 0.394-0.787 0.598-1.198 0.609v0c-0.095-0.004-0.317-0.01-0.665-0.019-0.353-0.005-0.708-0.022-1.064-0.051v0c-0.97-0.068-2.065-0.127-3.284-0.176v0c-0.343-0.014-0.727-0.008-1.153 0.018v0l-1.388 0.015-1.642 0.069 1.892 2.052c0.329 0.357 0.733 0.75 1.211 1.18v0l1.067 1.052c0.151 0.164 0.208 0.29 0.17 0.379-0.032 0.094-0.086 0.175-0.16 0.244-0.074 0.069-0.126 0.117-0.156 0.144v0l-0.511 0.43-0.851 0.688-1.03 1.046-0.782 0.762c-0.114 0.105-0.213 0.137-0.297 0.095-0.084-0.042-0.238-0.184-0.462-0.426v0l-5.54-5.963-2.111-2.29c-1.787-1.938-2.862-3.069-3.225-3.394v0c-0.193-0.18-0.484-0.48-0.872-0.901v0l-1.465-1.633-1.745-1.953c-0.137-0.149-0.126-0.296 0.032-0.442v0c0.099-0.091 0.205-0.166 0.317-0.224 0.112-0.057 0.21-0.125 0.294-0.202z" fill="#454545" data-fill-palette-color="primary"></path><path d="M237.696 205.263l0.288 0.222c0.4 0.309 0.574 0.498 0.52 0.567v0c-0.082 0.107-0.188 0.216-0.318 0.33-0.126 0.107-0.262 0.257-0.411 0.449v0l-3.243 4.202-2.538 3.239c-0.082 0.107-0.36 0.522-0.835 1.246v0l-0.421 0.646 0.675 0.598c0.249 0.218 0.654 0.543 1.214 0.975v0c0.283 0.218 0.663 0.486 1.142 0.805v0c0.45 0.288 0.772 0.506 0.964 0.654v0l1.048 0.809c0.283 0.218 0.508 0.379 0.675 0.483v0c0.145-0.144 0.339-0.373 0.582-0.688v0l0.809-1.048c0.082-0.107 0.226-0.332 0.432-0.676v0c0.313-0.482 0.597-0.889 0.852-1.22v0c0.111-0.144 0.517-0.614 1.217-1.411v0l0.477-0.551c0.111-0.144 0.254-0.357 0.429-0.64 0.175-0.282 0.357-0.546 0.547-0.791v0l0.691-0.846c0.392-0.43 0.653-0.73 0.785-0.901v0c0.152-0.197 0.245-0.339 0.277-0.425v0l0.093-0.171c0.095-0.123 0.203-0.18 0.324-0.171 0.121 0.008 0.21 0.047 0.268 0.117v0c0.106 0.116 0.25 0.244 0.431 0.384 0.187 0.144 0.343 0.278 0.47 0.401v0c0.126 0.123 0.188 0.214 0.186 0.271 0.002 0.053-0.065 0.167-0.201 0.343v0l-0.913 0.969c-1.136 1.218-1.86 2.03-2.173 2.435v0c-1.149 1.489-1.967 2.603-2.453 3.343v0c-0.186 0.308-0.407 0.627-0.662 0.958-0.255 0.331-0.418 0.542-0.488 0.632v0c-0.255 0.331-0.453 0.57-0.593 0.718v0l0.355 0.401c0.295 0.279 0.566 0.513 0.811 0.703v0c0.208 0.161 0.463 0.332 0.765 0.514v0c0.312 0.181 0.572 0.352 0.78 0.513v0l3.148 2.391 1.294 1.037c0.142 0.135 0.355 0.312 0.638 0.531v0c0.189-0.212 0.452-0.536 0.79-0.974v0c0.306-0.352 0.757-0.914 1.354-1.688v0l1.118-1.399c0.247-0.286 0.607-0.737 1.08-1.35v0c0.284-0.368 0.639-0.861 1.064-1.478v0l0.82-1.129c0.325-0.422 0.606-0.763 0.842-1.024 0.234-0.27 0.405-0.475 0.512-0.613v0c0.107-0.139 0.198-0.201 0.271-0.187 0.074 0.015 0.196 0.088 0.367 0.22v0c0.123 0.095 0.245 0.202 0.366 0.32 0.121 0.119 0.259 0.238 0.414 0.358v0c0.123 0.095 0.17 0.204 0.143 0.327-0.023 0.118-0.109 0.274-0.257 0.466v0c-0.148 0.192-0.278 0.343-0.389 0.454v0c-0.42 0.434-1.184 1.368-2.292 2.803v0c-0.675 0.875-1.151 1.513-1.425 1.914v0c-0.215 0.311-0.586 0.808-1.113 1.491v0l-1.908 2.423c-0.24 0.266-0.508 0.592-0.804 0.976v0c-0.189 0.245-0.344 0.386-0.465 0.42-0.126 0.031-0.258-0.008-0.397-0.115v0l-0.392-0.353c-0.062-0.074-0.136-0.143-0.221-0.209v0c-0.053-0.041-0.188-0.132-0.403-0.273-0.214-0.131-0.593-0.407-1.137-0.826v0c-0.523-0.404-1.394-1.051-2.615-1.942v0c-1.018-0.7-1.983-1.403-2.895-2.106v0c-0.384-0.297-1.464-1.198-3.239-2.704v0c-0.352-0.306-0.705-0.608-1.061-0.909-0.356-0.3-0.68-0.564-0.974-0.79v0c-2.033-1.569-3.396-2.578-4.088-3.027v0c-0.453-0.273-0.464-0.69-0.031-1.25v0c0.107-0.139 0.298-0.353 0.573-0.644v0c0.252-0.249 0.433-0.445 0.544-0.589v0l1.217-1.692c0.853-1.249 1.529-2.196 2.027-2.842v0c0.581-0.752 1.417-1.797 2.508-3.134v0c0.354-0.425 0.72-0.883 1.099-1.374v0c0.161-0.208 0.315-0.298 0.463-0.269 0.143 0.025 0.268 0.088 0.378 0.189 0.108 0.092 0.181 0.152 0.218 0.181z" fill="#454545" data-fill-palette-color="primary"></path><path d="M245.298 194.379c-1.2-0.658-1.94-1.075-2.22-1.252v0c-0.372-0.204-0.527-0.454-0.465-0.75 0.059-0.29 0.222-0.678 0.488-1.163v0c0.237-0.431 0.514-0.994 0.833-1.688 0.319-0.694 0.549-1.24 0.691-1.639v0c0.131-0.282 0.283-0.452 0.454-0.512 0.171-0.06 0.381-0.022 0.629 0.114v0c0.077 0.042 0.281 0.181 0.613 0.417v0c0.27 0.194 2.19 1.27 5.76 3.227v0l6.57 3.601c0.993 0.544 2.093 1.132 3.3 1.763 1.204 0.622 2.293 1.173 3.267 1.653 0.971 0.486 1.244 0.613 0.819 0.379v0c0.307 0.168 0.377 0.406 0.208 0.714v0c-0.075 0.136-0.147 0.246-0.216 0.331v0c-0.063 0.073-0.158 0.225-0.284 0.456v0c-0.126 0.231-0.311 0.61-0.555 1.137v0c-0.257 0.566-0.443 0.956-0.56 1.169v0c-0.201 0.366-0.428 0.599-0.682 0.698-0.26 0.096-0.647 0.129-1.162 0.101v0l-1.257-0.043c-1.618-0.134-2.919-0.178-3.904-0.134v0c-0.565 0.021-2.088 0.016-4.57-0.015v0l-3.116-0.036 1.099 0.603 0.674 0.369c0.154 0.084 0.345 0.197 0.576 0.339 0.227 0.132 0.491 0.269 0.79 0.409v0c1.011 0.554 2.34 1.263 3.987 2.129 1.642 0.861 2.644 1.353 3.007 1.475v0c0.104 0.034 0.224 0.088 0.361 0.163v0c0.195 0.107 0.295 0.212 0.3 0.315 0.011 0.106-0.054 0.259-0.194 0.459v0c-0.172 0.313-0.35 0.688-0.535 1.124-0.195 0.439-0.372 0.853-0.532 1.243v0c-0.117 0.312-0.268 0.476-0.453 0.489-0.185 0.014-0.505-0.116-0.962-0.389v0c-0.697-0.382-1.946-1.028-3.746-1.938v0c-1.886-0.934-3.511-1.763-4.874-2.488v0c-1.377-0.755-2.759-1.551-4.145-2.387v0c-1.766-1.014-2.979-1.702-3.641-2.066v0c-0.887-0.486-1.548-0.814-1.986-0.984v0c-0.371-0.15-0.607-0.252-0.708-0.308v0c-0.349-0.191-0.553-0.38-0.612-0.566-0.068-0.184-0.049-0.373 0.058-0.568v0c0.055-0.1 0.168-0.292 0.338-0.575 0.171-0.283 0.337-0.734 0.5-1.352v0c0.075-0.235 0.171-0.46 0.287-0.673v0c0.065-0.118 0.164-0.279 0.299-0.481 0.14-0.2 0.306-0.474 0.497-0.823v0c0.246-0.449 0.625-0.726 1.136-0.831 0.514-0.11 1.186-0.165 2.015-0.163v0l0.684-0.006c0.555-0.003 1.164-0.034 1.827-0.094v0l0.916-0.074z" fill="#454545" data-fill-palette-color="primary"></path><path d="M249.807 176.448c0.631-1.822 1.455-3.049 2.473-3.68 1.011-0.634 1.546-0.963 1.603-0.986v0c0.219-0.159 0.402-0.214 0.549-0.163v0c0.083 0.029 0.151 0.099 0.205 0.21v0c0.061 0.092 0.196 0.278 0.406 0.558 0.208 0.286 0.294 0.48 0.259 0.582v0c-0.037 0.108-0.139 0.226-0.305 0.354v0l-0.257 0.157c-1.702 1.187-2.749 2.347-3.142 3.481v0c-0.498 1.44-0.548 2.645-0.15 3.618 0.407 0.968 1.11 1.625 2.11 1.972v0c0.86 0.298 1.699 0.242 2.518-0.166 0.819-0.408 1.675-1.018 2.57-1.828v0c0.222-0.251 0.442-0.514 0.658-0.789v0c0.757-0.908 1.497-1.675 2.22-2.302 0.717-0.629 1.64-1.101 2.769-1.417 1.127-0.309 2.378-0.225 3.754 0.251v0c2.363 0.818 3.7 2.18 4.011 4.085 0.315 1.914 0.128 3.864-0.56 5.851v0c-0.397 1.147-1.021 2.093-1.871 2.84-0.844 0.749-1.533 1.256-2.067 1.521v0c-0.257 0.146-0.463 0.132-0.617-0.042v0c-0.038-0.035-0.173-0.181-0.404-0.44-0.24-0.254-0.338-0.445-0.294-0.572v0l0.023-0.067c0.02-0.057 0.052-0.11 0.098-0.159 0.049-0.04 0.131-0.079 0.244-0.119 0.109-0.048 0.233-0.105 0.37-0.171v0c0.369-0.179 0.863-0.607 1.482-1.285 0.617-0.671 1.016-1.267 1.198-1.789v0c0.384-1.108 0.514-2.247 0.391-3.417-0.125-1.163-0.949-2.008-2.472-2.535v0c-0.65-0.225-1.313-0.133-1.988 0.274-0.683 0.406-1.558 1.101-2.627 2.087v0l-1.215 1.098c-1.346 1.168-2.643 1.999-3.891 2.494-1.248 0.495-2.656 0.471-4.224-0.071v0c-1.293-0.448-2.291-1.211-2.995-2.288-0.706-1.072-1.117-2.255-1.231-3.551-0.115-1.295 0.018-2.494 0.399-3.596z" fill="#454545" data-fill-palette-color="primary"></path><path d="M3.284 139.969c0-5.146 4.172-9.319 9.319-9.318 5.146 0 9.319 4.172 9.318 9.318 0 5.146-4.172 9.319-9.318 9.319-5.146 0-9.319-4.172-9.319-9.319z" fill="#454545" data-fill-palette-color="primary"></path><path d="M258.079 139.969c0-5.146 4.172-9.319 9.318-9.318 5.146 0 9.319 4.172 9.319 9.318 0 5.146-4.172 9.319-9.319 9.319-5.146 0-9.319-4.172-9.318-9.319z" fill="#454545" data-fill-palette-color="primary"></path></g></svg></g></svg></g></svg></g></svg></g><defs></defs></svg><rect width="280" height="280" fill="none" stroke="none" visibility="hidden"></rect></g></svg></g></svg>